<svg xmlns="http://www.w3.org/2000/svg" viewBox="0 0 512 512"><path fill="rgba(255,255,255,.5)" d="M392.17 236.3a21.26 21.26 0 00-23.25 4.62L256 353.84 143.1 240.92A21.31 21.31 0 00106.67 256v108.14c0 5.72 2.3 11.18 6.34 15.17l128 126.53a21.33 21.33 0 0029.99 0l128-126.53a21.27 21.27 0 006.34-15.17V256c0-8.61-5.19-16.42-13.17-19.7z"/><path fill="rgba(255,255,255,.25)" d="M392.17 1.63a21.34 21.34 0 00-23.25 4.63L256 119.16 143.1 6.26a21.32 21.32 0 00-36.42 15.08v108.14c0 5.72 2.3 11.18 6.34 15.17l128 126.52a21.33 21.33 0 0029.99 0l128-126.52a21.27 21.27 0 006.34-15.17V21.34c0-8.62-5.19-16.43-13.17-19.71z"/></svg>